<svg xmlns="http://www.w3.org/2000/svg" viewBox="0 0 24 24" fill="#C13584">
  <path d="M12 2.163c3.204 0 3.584.012 4.85.07 1.17.056 1.97.24 2.43.415a4.92 4.92 0 011.675 1.087 4.92 4.92 0 011.087 1.675c.175.46.359 1.26.415 2.43.058 1.266.07 1.646.07 4.85s-.012 3.584-.07 4.85c-.056 1.17-.24 1.97-.415 2.43a4.902 4.902 0 01-1.087 1.675 4.902 4.902 0 01-1.675 1.087c-.46.175-1.26.359-2.43.415-1.266.058-1.646.07-4.85.07s-3.584-.012-4.85-.07c-1.17-.056-1.97-.24-2.43-.415a4.92 4.92 0 01-1.675-1.087 4.92 4.92 0 01-1.087-1.675c-.175-.46-.359-1.26-.415-2.43C2.175 15.747 2.163 15.367 2.163 12s.012-3.584.07-4.85c.056-1.17.24-1.97.415-2.43A4.902 4.902 0 014.75 2.648 4.902 4.902 0 016.425 1.56c.46-.175 1.26-.359 2.43-.415C8.416 1.175 8.796 1.163 12 1.163zm0-1.163C8.741 0 8.332.014 7.052.072 5.772.129 4.73.313 3.93.617a6.92 6.92 0 00-2.504 1.65A6.92 6.92 0 00.617 5.771C0 7.024 0 8.223 0 12c0 3.777.014 4.976.072 6.228.057 1.252.241 2.303.617 3.106a6.92 6.92 0 001.65 2.504 6.92 6.92 0 002.504 1.65c.803.376 1.854.56 3.106.617 1.252.058 2.451.072 6.228.072s4.976-.014 6.228-.072c1.252-.057 2.303-.241 3.106-.617a6.92 6.92 0 002.504-1.65 6.92 6.92 0 001.65-2.504c.376-.803.56-1.854.617-3.106.058-1.252.072-2.451.072-6.228s-.014-4.976-.072-6.228c-.057-1.252-.241-2.303-.617-3.106A6.92 6.92 0 0020.07.617 6.92 6.92 0 0017.566-.38c-.803-.376-1.854-.56-3.106-.617C16.332.014 15.133 0 12 0z"/>
  <path d="M12 5.838a6.162 6.162 0 100 12.324 6.162 6.162 0 000-12.324zm0 10.162a4 4 0 110-8 4 4 0 010 8zm6.406-11.845a1.44 1.44 0 11-2.88 0 1.44 1.44 0 012.88 0z"/>
</svg>