<svg xmlns="http://www.w3.org/2000/svg" viewBox="0 0 24 24" fill="#0077B5">
  <path d="M20.447 20.452H17.2v-5.569c0-1.328-.025-3.037-1.852-3.037-1.853 0-2.136 1.45-2.136 2.952v5.668H9.004V9h3.114v1.561h.044c.433-.82 1.49-1.68 3.07-1.68 3.28 0 3.888 2.158 3.888 4.967v6.654zM5.337 7.433c-1.044 0-1.893-.85-1.893-1.893s.85-1.893 1.893-1.893 1.893.85 1.893 1.893-.85 1.893-1.893 1.893zM6.848 20.452H3.825V9h3.023v11.452zM22.225 0H1.771C.792 0 0 .774 0 1.727v20.546C0 23.227.792 24 1.771 24h20.451C23.2 24 24 23.227 24 22.273V1.727C24 .774 23.2 0 22.225 0z"/>
</svg>